<svg width="318" height="72" viewBox="0 0 318 72" fill="none" xmlns="http://www.w3.org/2000/svg">
<path d="M97.8962 61.6163H108.617V45.7125L121.823 61.6163H134.816L118.628 42.1625L131.692 26.1166H118.983L108.617 38.8255V8.36676H97.8962V61.6163Z" fill="white"/>
<path d="M137.625 61.6163H148.346V8.36676H137.625V61.6163Z" fill="white"/>
<path d="M173.65 62.3973C183.874 62.3973 192.323 54.3034 192.323 43.8665C192.323 33.4296 183.874 25.3356 173.65 25.3356C163.426 25.3356 154.977 33.4296 154.977 43.8665C154.977 54.3034 163.426 62.3973 173.65 62.3973ZM173.65 52.3864C169.177 52.3864 165.769 48.9074 165.769 43.8665C165.769 38.8255 169.177 35.3465 173.65 35.3465C178.123 35.3465 181.531 38.8255 181.531 43.8665C181.531 48.9074 178.123 52.3864 173.65 52.3864Z" fill="white"/>
<path d="M198.918 61.6163H209.639V44.3635C209.639 37.9735 212.763 35.0625 216.81 35.0625C220.644 35.0625 222.561 38.0445 222.561 42.9435V61.6163H233.282V41.0975C233.282 31.7966 228.241 25.3356 219.508 25.3356C214.893 25.3356 211.343 27.3236 209.639 29.7376V26.1166H198.918V61.6163Z" fill="white"/>
<path d="M258.384 62.3973C265.768 62.3973 272.3 58.2084 275.353 52.0314L265.981 47.0614C264.703 50.1144 261.934 52.3864 258.384 52.3864C253.911 52.3864 250.29 48.9074 250.29 43.8665C250.29 38.8255 253.911 35.3465 258.384 35.3465C261.934 35.3465 264.703 37.6185 265.981 40.6715L275.353 35.7015C272.3 29.5246 265.768 25.3356 258.384 25.3356C247.947 25.3356 239.498 33.0036 239.498 43.8665C239.498 54.7294 247.947 62.3973 258.384 62.3973Z" fill="white"/>
<path d="M281.08 61.6163H291.801V45.7125L305.007 61.6163H318L301.812 42.1625L314.876 26.1166H302.167L291.801 38.8255V8.36676H281.08V61.6163Z" fill="white"/>
<rect x="37.2571" y="0.106934" width="15.1137" height="33.7423" fill="#34A853"/>
<rect x="55.5342" y="18.7355" width="15.1137" height="15.1137" fill="#34A853"/>
<rect y="33.6735" width="15.1137" height="33.7423" transform="rotate(-90 0 33.6735)" fill="#4285F4"/>
<rect x="18.6285" y="15.3964" width="15.1137" height="15.1137" transform="rotate(-90 18.6285 15.3964)" fill="#4285F4"/>
<rect x="33.5665" y="71.1063" width="15.1137" height="33.7423" transform="rotate(180 33.5665 71.1063)" fill="#EA4335"/>
<rect x="15.2895" y="52.4778" width="15.1137" height="15.1137" transform="rotate(180 15.2895 52.4778)" fill="#EA4335"/>
<rect x="70.9994" y="37.5398" width="15.1137" height="33.7423" transform="rotate(90 70.9994 37.5398)" fill="#FBBC05"/>
<rect x="52.3708" y="55.8168" width="15.1137" height="15.1137" transform="rotate(90 52.3708 55.8168)" fill="#FBBC05"/>
</svg>
