<svg width="318" height="71" viewBox="0 0 318 71" fill="none" xmlns="http://www.w3.org/2000/svg">
<path d="M97.8962 61.5094H108.617V45.6056L121.823 61.5094H134.816L118.628 42.0556L131.692 26.0097H118.983L108.617 38.7186V8.25986H97.8962V61.5094Z" fill="black"/>
<path d="M137.625 61.5094H148.346V8.25986H137.625V61.5094Z" fill="black"/>
<path d="M173.65 62.2904C183.874 62.2904 192.323 54.1965 192.323 43.7596C192.323 33.3227 183.874 25.2287 173.65 25.2287C163.426 25.2287 154.977 33.3227 154.977 43.7596C154.977 54.1965 163.426 62.2904 173.65 62.2904ZM173.65 52.2795C169.177 52.2795 165.769 48.8005 165.769 43.7596C165.769 38.7186 169.177 35.2396 173.65 35.2396C178.123 35.2396 181.531 38.7186 181.531 43.7596C181.531 48.8005 178.123 52.2795 173.65 52.2795Z" fill="black"/>
<path d="M198.918 61.5094H209.639V44.2566C209.639 37.8666 212.763 34.9556 216.81 34.9556C220.644 34.9556 222.561 37.9376 222.561 42.8366V61.5094H233.282V40.9906C233.282 31.6897 228.241 25.2287 219.508 25.2287C214.893 25.2287 211.343 27.2167 209.639 29.6307V26.0097H198.918V61.5094Z" fill="black"/>
<path d="M258.384 62.2904C265.768 62.2904 272.3 58.1014 275.353 51.9245L265.981 46.9545C264.703 50.0075 261.934 52.2795 258.384 52.2795C253.911 52.2795 250.29 48.8005 250.29 43.7596C250.29 38.7186 253.911 35.2396 258.384 35.2396C261.934 35.2396 264.703 37.5116 265.981 40.5646L275.353 35.5946C272.3 29.4177 265.768 25.2287 258.384 25.2287C247.947 25.2287 239.498 32.8967 239.498 43.7596C239.498 54.6225 247.947 62.2904 258.384 62.2904Z" fill="black"/>
<path d="M281.08 61.5094H291.801V45.6056L305.007 61.5094H318L301.812 42.0556L314.876 26.0097H302.167L291.801 38.7186V8.25986H281.08V61.5094Z" fill="black"/>
<rect x="37.2571" width="15.1137" height="33.7423" fill="#34A853"/>
<rect x="55.5342" y="18.6286" width="15.1137" height="15.1137" fill="#34A853"/>
<rect y="33.5666" width="15.1137" height="33.7423" transform="rotate(-90 0 33.5666)" fill="#4285F4"/>
<rect x="18.6286" y="15.2895" width="15.1137" height="15.1137" transform="rotate(-90 18.6286 15.2895)" fill="#4285F4"/>
<rect x="33.5666" y="70.9994" width="15.1137" height="33.7423" transform="rotate(180 33.5666 70.9994)" fill="#EA4335"/>
<rect x="15.2895" y="52.3708" width="15.1137" height="15.1137" transform="rotate(180 15.2895 52.3708)" fill="#EA4335"/>
<rect x="70.9994" y="37.4329" width="15.1137" height="33.7423" transform="rotate(90 70.9994 37.4329)" fill="#FBBC05"/>
<rect x="52.3708" y="55.7099" width="15.1137" height="15.1137" transform="rotate(90 52.3708 55.7099)" fill="#FBBC05"/>
</svg>